<?xml version="1.0" standalone="no"?>
<!DOCTYPE svg PUBLIC "-//W3C//DTD SVG 1.1//EN" "http://www.w3.org/Graphics/SVG/1.1/DTD/svg11.dtd" >
<svg xmlns="http://www.w3.org/2000/svg">
<metadata>Generated by IcoMoon</metadata>
<defs>
<font id="swym-icons" horiz-adv-x="1024">
<font-face units-per-em="1024" ascent="960" descent="-64" />
<missing-glyph horiz-adv-x="1024" />
<glyph unicode="&#x20;" horiz-adv-x="512" d="" />
<glyph unicode="&#xe900;" glyph-name="eye" d="M512 832c-282.752 0-512-379.008-512-379.008s229.248-388.992 512-388.992 512 388.992 512 388.992-229.248 379.008-512 379.008zM512 192c-141.376 0-256 114.624-256 256s114.624 256 256 256 256-114.624 256-256-114.624-256-256-256zM384 448c0 70.692 57.308 128 128 128s128-57.308 128-128c0-70.692-57.308-128-128-128s-128 57.308-128 128z" />
<glyph unicode="&#xe901;" glyph-name="cart" d="M1000.186 908.8c13.151 0 23.814-10.662 23.814-23.814s-10.663-23.814-23.814-23.814h-126.883l-41.674-103.814-139.164-348.28 55.815-133.952c3.122-7.36 2.343-15.796-2.075-22.46s-11.884-10.666-19.879-10.657h-595.349c-13.152 0-23.814 10.662-23.814 23.814s10.662 23.814 23.814 23.814h559.628l-45.768 110.14c-2.317 5.728-2.317 12.132 0 17.86l190.512 476.279c3.623 8.954 12.295 14.834 21.954 14.884h142.884zM750.14 765.916l-142.884-345.302-535.814 35.721-71.442 309.582h750.14zM595.349 170.567c46.031 0 83.349-37.316 83.349-83.349s-37.318-83.349-83.349-83.349c-46.032 0-83.349 37.316-83.349 83.349s37.316 83.349 83.349 83.349zM261.953 170.567c46.032 0 83.349-37.316 83.349-83.349s-37.316-83.349-83.349-83.349c-46.031 0-83.349 37.316-83.349 83.349s37.318 83.349 83.349 83.349z" />
<glyph unicode="&#xe902;" glyph-name="email" d="M520.223 959.982c-50.987 0-97.123-1.732-138.461-4.49-41.035-2.76-77.030-6.896-107.958-12.568-31.236-5.823-59.967-14.405-85.233-25.442-25.722-11.341-48.283-25.354-67.882-41.904-19.754-16.859-36.898-37.586-51.138-62.26-14.087-24.521-25.365-52.979-34.093-85.010-16.997-62.987-25.418-147.197-25.418-252.33 0-55.937 1.072-106.403 4.179-151.46 2.91-45.055 7.182-84.37 13.154-117.933 5.818-34.022 14.408-64.474 25.117-91.294 11.026-26.972 24.152-50.724 40.076-70.34 16.228-19.923 35.944-36.787 58.911-50.885 22.969-13.794 49.253-24.66 78.653-32.628 29.088-7.97 63.229-14.13 102.274-17.958 38.739-3.985 82.755-5.992 130.985-5.992 50.529 0 95.938 0.92 136.667 2.392 39.811 1.378 73.657 3.814 101.678 6.881 28.171 3.064 53.313 7.341 75.36 13.164 22.356 5.823 41.496 12.812 57.418 21.55 16.077 8.582 30.654 19.748 43.363 32.927 8.422 8.735 14.959 17.298 20.934 26.339 5.204 8.123 6.644 16.993 3.889 26.342-2.451 9.195-8.313 16.217-17.045 20.354l-63.101 29.633c-13.165 6.283-28.034 2.805-37.68-8.076-2.604-2.76-5.313-5.318-8.375-8.076-5.665-4.905-11.651-9.35-18.243-12.875-6.889-3.525-14.592-6.82-23.323-9.578-8.882-2.757-19.189-4.751-29.905-6.283-11.332-1.686-24.34-3.111-38.579-4.184-14.853-1.224-30.713-2.237-47.249-2.696-17.61-0.612-39.45-0.765-66.090-0.92-22.203-0.16-53.627-0.321-94.202-0.321-41.035 0-77.024 1.716-108.259 5.089s-57.505 8.23-79.247 14.974c-21.131 6.437-39.416 15.173-54.728 25.739-14.853 10.422-26.845 22.566-36.183 36.818-9.341 14.866-17.209 31.882-23.027 50.885-5.973 19.157-9.968 40.462-12.266 63.758-2.449 24.060-4.456 54.52-5.68 90.994-1.225 35.708-1.792 79.042-1.792 129.309 0 44.751 0.921 83.771 3.293 117.334 2.141 33.41 5.727 61.575 10.167 84.41 4.135 21.915 10.275 41.371 18.54 57.771 7.963 16.091 17.969 29.681 29.606 40.408h0.321c11.637 10.882 26.205 19.737 43.662 26.94 17.761 7.357 38.77 12.935 62.501 16.463 24.499 3.831 54.646 6.681 90.016 8.674 35.523 1.84 76.787 2.696 124.406 2.696 49.151 0 91.29-0.92 126.199-2.1 35.215-1.378 64.35-3.233 87.622-5.992 22.356-2.606 41.925-6.744 58.614-12.568 16.383-5.517 29.954-12.674 40.672-21.251 10.718-8.43 19.574-19.154 26.614-32.028 7.197-13.179 12.771-29.209 16.45-47.295 7.503-38.005 11.070-96.040 11.070-174.506 0-36.935-0.611-68.678-1.792-94.886-1.222-26.665-2.77-48.533-5.375-65.852-2.296-16.705-5.603-30.869-9.277-41.904-3.215-10.114-7.536-17.7-11.668-22.449-8.42-9.349-21.122-14.361-38.577-14.361-8.116 0-14.975 1.226-20.336 2.988-4.595 1.533-8.316 3.678-11.070 6.59-3.371 3.678-6.079 7.556-8.070 11.080-1.685 3.678-3.278 7.402-3.889 11.080-0.766 4.904-1.625 12.062-2.389 21.252-0.766 8.275-1.778 19.717-2.693 34.123v322.374c0 17.625-14.394 32.028-31.701 32.028h-95.398c-17.61 0-31.998-14.406-31.998-32.028v-11.969c-6.737 7.203-13.582 13.35-20.934 18.558-8.727 6.13-17.876 11.432-27.214 15.264-9.491 4.139-19.495 6.989-29.905 8.98h-0.321c-10.258 1.841-21.104 3.266-32.895 4.184-12.098 0.92-25.097 1.228-38.878 1.228-30.009 0-56.581-3.142-79.546-9.578-23.733-6.59-43.582-16.598-59.812-29.933-16.077-13.179-29.063-28.326-39.474-45.797-10.26-17.165-17.836-36.32-22.429-57.471-4.595-20.383-7.87-43.551-10.169-69.144-2.141-25.593-3.291-53.898-3.291-85.007 0-29.731 1.227-57.035 3.585-82.015 2.139-25.134 5.725-47.593 10.165-66.75 4.899-20.23 12.769-38.239 23.027-54.177 10.566-16.093 23.552-29.808 39.474-41.608 16.23-11.647 36.086-20.517 59.513-26.341 22.965-5.669 49.247-8.382 78.95-8.382 23.428 0 45.141 1.868 64.895 5.394 19.906 3.525 37.758 8.966 53.532 16.164 16.228 7.662 30.66 18.826 43.062 32.926 5.206 5.824 10.519 12.551 14.959 19.754 2.91-6.743 6.048-13.179 9.877-18.856 9.799-14.559 22.513-25.577 37.977-32.627 14.242-6.744 30.82-12.045 49.346-15.263 18.219-3.065 38.504-4.783 60.707-4.783 21.437 0 41.153 1.378 58.913 4.184 18.068 2.911 33.769 7.050 47.55 12.872 14.392 5.977 27.099 14.439 38.278 24.547 11.177 10.114 20.892 22.417 29.008 36.517 7.961 13.946 14.82 30.247 20.334 48.79 5.512 18.238 9.646 38.973 12.862 61.961 3.215 22.682 5.496 48.984 7.182 79.022 1.532 30.344 2.389 63.945 2.389 100.572 0 45.824-1.563 87.14-4.777 123.922-3.368 36.781-8.375 68.221-14.959 94.886-6.737 27.432-16.314 51.746-28.41 72.436-12.251 21.301-27.389 39.021-45.455 53.579-17.761 14.559-39.049 26.863-63.699 36.519-24.041 9.502-51.756 16.946-82.837 21.85-30.47 5.058-66.897 8.629-109.154 11.080-42.568 2.453-90.7 3.892-144.443 3.892l-0.004-0.018zM507.361 621.746c21.129 0 38.692-2.283 52.932-6.882 13.473-4.291 23.897-10.882 31.402-19.458 7.808-8.736 13.657-20.455 17.643-35.321 4.287-15.633 6.584-34.802 6.584-56.871v-60.464c0-19.618-0.611-37.071-1.789-51.785-1.225-15.172-3.096-27.453-5.39-37.414-1.989-8.889-5.574-16.904-10.473-23.648-4.593-6.437-10.734-11.861-18.542-16.463h-0.319c-7.963-4.751-18.385-8.474-31.4-11.080-13.934-2.605-30.503-3.891-49.643-3.891-15.617 0-28.749 1.075-39.773 3.587-10.26 2.298-18.843 5.731-25.122 10.176-6.431 4.443-11.865 9.732-15.849 15.862-4.135 6.131-6.83 12.982-8.668 20.954-1.838 9.042-3.26 20.052-4.179 32.926-1.074 12.719-1.792 27.15-1.792 43.702v70.041c0 23.449 1.867 43.606 5.085 60.464 3.215 15.939 7.625 28.659 13.766 38.314v0.321c5.357 8.429 14.636 14.85 27.81 19.455 14.547 4.905 33.984 7.479 57.717 7.479v-0.004z" />
<glyph unicode="&#xe903;" glyph-name="eye2" d="M1013.911 452.819c-0.020 0.422-0.060 0.823-0.090 1.235-0.020 0.211-0.030 0.422-0.050 0.622-0.030 0.301-0.080 0.602-0.12 0.893-0.040 0.351-0.080 0.703-0.141 1.044-0.010 0.040-0.020 0.090-0.020 0.131-1.235 7.76-4.889 15.039-10.491 20.641-32.025 37.958-70.124 71.74-108.865 102.591-83.436 66.48-178.859 122.097-284.19 144.484-60.878 12.931-122.137 13.483-183.336 2.54-55.667-9.959-109.317-30.66-159.533-56.32-78.597-40.157-150.377-95.523-212.922-157.596-11.575-11.485-23.090-23.211-33.611-35.689-14.015-16.605-14.015-36.272 0-52.877 32.025-37.958 70.124-71.73 108.865-102.591 83.446-66.48 178.869-122.087 284.2-144.474 60.878-12.941 122.147-13.493 183.346-2.55 55.657 9.959 109.307 30.66 159.533 56.32 78.597 40.167 150.377 95.523 212.922 157.596 11.575 11.495 23.090 23.211 33.611 35.689 5.602 5.612 9.256 12.88 10.491 20.651 0 0.040 0.010 0.090 0.020 0.131 0.060 0.351 0.1 0.693 0.141 1.044 0.040 0.291 0.090 0.592 0.12 0.893 0.020 0.211 0.030 0.412 0.050 0.622 0.030 0.402 0.070 0.803 0.090 1.225 0.030 0.622 0.050 1.245 0.050 1.877s-0.040 1.245-0.070 1.867zM512 257.787c-106.687 0-193.165 86.478-193.165 193.165 0 106.677 86.478 193.165 193.165 193.165s193.165-86.478 193.165-193.165c0-106.687-86.478-193.165-193.165-193.165zM575.94 450.952c0-35.313-28.627-63.94-63.94-63.94s-63.94 28.627-63.94 63.94c0 35.313 28.627 63.94 63.94 63.94s63.94-28.627 63.94-63.94z" />
<glyph unicode="&#xe904;" glyph-name="filter" d="M986.515 922.781c-12.406 23.434-37.219 37.219-63.41 37.219h-821.574c-26.191 0-51.004-13.785-63.41-37.219s-12.406-51.004 1.378-73.059c1.378-1.378 1.378-2.757 2.757-4.135l329.457-434.221v-312.915c0-19.299 9.649-37.219 26.191-46.868l169.553-106.143c8.271-5.514 19.299-8.271 28.948-8.271s17.92 2.757 26.191 6.892c17.92 9.649 28.948 27.57 28.948 48.247v419.058l329.457 434.221c1.378 1.378 1.378 2.757 2.757 4.135 13.785 22.056 15.163 49.625 2.757 73.059z" />
<glyph unicode="&#xe905;" glyph-name="heart2" d="M1024 644.267c0-113.067-49.067-405.333-501.333-699.733l-10.667-8.533-10.667 6.4c-452.267 296.533-501.333 588.8-501.333 701.867 0 174.933 128 315.733 285.867 315.733 89.6 0 172.8-44.8 226.133-123.733 53.333 78.933 136.533 123.733 226.133 123.733 157.867 0 285.867-140.8 285.867-315.733z" />
<glyph unicode="&#xe906;" glyph-name="home" d="M545.067 919.253c-19.2 18.133-49.067 18.133-68.267 0l-457.6-418.133c-20.267-19.2-21.333-50.133-4.267-72.533 19.2-20.267 50.133-21.333 72.533-4.267l423.467 388.267 423.467-385.067c9.6-8.533 21.333-12.8 34.133-12.8 13.867 0 27.733 5.333 38.4 16 19.2 20.267 18.133 53.333-4.267 72.533l-457.6 416zM137.6 432.853l61.867-382.933c7.467-49.067 50.133-84.267 100.267-84.267h427.733c49.067 0 92.8 35.2 100.267 84.267l61.867 382.933-378.667 333.867-373.333-333.867zM597.333 308.053l-21.333-240c-1.067-6.4-6.4-11.733-12.8-11.733h-105.6c-6.4 0-11.733 5.333-12.8 11.733l-21.333 240c-1.067 7.467 5.333 13.867 12.8 13.867h148.267c8.533 0 13.867-6.4 12.8-13.867z" />
<glyph unicode="&#xe907;" glyph-name="sale" d="M951.087 875.703c-3.242 9.727-9.727 19.453-19.453 19.453l-369.611 64.844c-6.484 0-16.211 0-22.695-6.484l-521.994-521.994c-9.727-9.727-9.727-25.938 0-35.664l434.454-434.454c3.242-3.242 9.727-6.484 16.211-6.484s12.969 3.242 16.211 6.484l521.994 521.994c6.484 6.484 9.727 12.969 6.484 22.695l-61.602 369.611zM821.399 661.718c-29.18-29.18-74.571-29.18-100.508 0-29.18 29.18-29.18 74.571 0 100.508 29.18 29.18 74.571 29.18 100.508 0 29.18-25.938 29.18-71.328 0-100.508z" />
<glyph unicode="&#xe908;" glyph-name="search" d="M1008.331 27.234l-247.303 247.313c129.316 166.628 117.612 408.010-35.335 560.936-80.3 80.3-187.053 124.517-300.594 124.517-113.551 0-220.294-44.217-300.583-124.517-80.3-80.289-124.517-187.043-124.517-300.594s44.228-220.304 124.506-300.604c80.3-80.289 187.043-124.506 300.594-124.506 95.531 0 186.177 31.402 260.385 89.15l247.281-247.281c10.432-10.432 24.112-15.647 37.783-15.647s27.362 5.216 37.783 15.647c20.885 20.885 20.885 54.723 0 75.587zM200.082 309.882c-60.11 60.11-93.211 140.026-93.211 225.018 0 85.003 33.101 164.908 93.222 225.018 60.099 60.11 140.004 93.211 225.007 93.211 84.992 0 164.918-33.101 225.028-93.211 124.068-124.068 124.068-325.946 0-450.025-60.11-60.11-140.036-93.211-225.028-93.211-85.003-0.011-164.908 33.091-225.018 93.201z" />
<glyph unicode="&#xe909;" glyph-name="award" d="M307.2 423.822v0 0c-62.848 56.251-102.4 137.994-102.4 228.978 0 169.662 137.538 307.2 307.2 307.2s307.2-137.538 307.2-307.2c0-90.982-39.552-172.727-102.4-228.978v-487.822l-204.8 204.8-204.8-204.8v487.822zM341.334 397.332v-379.411l170.666 170.666 170.666-170.666v379.411c-48.813-32.675-107.515-51.732-170.666-51.732s-121.853 19.057-170.666 51.732v0 0zM512 379.734c150.811 0 273.066 122.255 273.066 273.066s-122.255 273.066-273.066 273.066c-150.811 0-273.066-122.257-273.066-273.066s122.255-273.066 273.066-273.066v0zM512 560.902l-119.466-78.77 51.2 136.534-102.4 68.266h119.466l51.2 136.534 51.2-136.534h119.466l-102.4-68.266 51.2-136.534-119.466 78.77z" />
<glyph unicode="&#xe90a;" glyph-name="award2" d="M307.2 379.709v-443.709l204.8 204.8 204.8-204.8v443.709c-57.048-42.85-127.959-68.243-204.8-68.243s-147.752 25.39-204.8 68.243v0 0zM512 345.6c169.662 0 307.2 137.538 307.2 307.2s-137.538 307.2-307.2 307.2c-169.662 0-307.2-137.538-307.2-307.2s137.538-307.2 307.2-307.2v0zM512 560.902l-119.466-78.77 51.2 136.534-102.4 68.266h119.466l51.2 136.534 51.2-136.534h119.466l-102.4-68.266 51.2-136.534-119.466 78.77z" />
<glyph unicode="&#xe90b;" glyph-name="settings" d="M416.744 960l-32.373-140.279c-15.434-5.301-30.524-11.502-45.023-18.605l-122.047 76.279-134.698-134.698 76.28-122.047c-7.104-14.499-13.302-29.588-18.606-45.023l-140.278-32.373v-190.512l140.278-32.371c5.302-15.435 11.502-30.525 18.606-45.024l-76.28-122.047 134.698-134.698 122.047 76.28c14.499-7.103 29.589-13.304 45.023-18.605l32.373-140.28h190.512l32.373 140.28c15.434 5.301 30.524 11.502 45.023 18.605l122.047-76.28 134.698 134.698-76.28 122.047c7.104 14.499 13.302 29.589 18.606 45.024l140.278 32.371v190.512l-140.278 32.373c-5.302 15.435-11.502 30.524-18.606 45.023l76.28 122.047-134.698 134.698-122.047-76.279c-14.499 7.102-29.589 13.303-45.023 18.605l-32.373 140.279h-190.512zM512 686.14c131.521 0 238.14-106.618 238.14-238.14 0-131.52-106.619-238.14-238.14-238.14s-238.14 106.62-238.14 238.14c0 131.523 106.619 238.14 238.14 238.14z" />
<glyph unicode="&#xe90c;" glyph-name="arrow-down" d="M874.109 85.914c92.137 93.935 149.891 220.297 149.891 363.019 0 140.834-57.754 269.073-149.891 361.153-92.103 92.103-220.319 149.902-361.165 149.902-142.677 0-269.096-57.799-362.974-149.902-92.16-92.080-149.97-220.319-149.97-361.153 0-142.723 57.81-269.084 149.97-363.019 93.878-92.103 220.297-149.902 362.974-149.902 140.846 0 269.062 57.799 361.165 149.902zM507.506 297.199l-211.285 211.285c-1.798 1.832-1.798 5.45 0 9.068l46.911 45.147 164.375-164.352c3.63-1.798 7.236-1.798 9.045 0l164.318 164.352 46.967-45.147c1.798-3.618 1.798-7.236 0-9.068l-211.285-211.285c-1.798-1.786-5.416-1.786-9.045 0z" />
<glyph unicode="&#xe90d;" glyph-name="share" d="M790.707 960.001c-89.526 0-162.6-73.074-162.6-162.6 0-18.856 3.483-36.849 9.437-53.716l-297.616-172.763c-28.626 25.071-65.836 40.65-106.706 40.65-89.526 0-162.6-73.074-162.6-162.601s73.074-162.6 162.6-162.6c40.94 0 78.424 15.502 107.070 40.65l297.253-172.399c-6.027-16.959-9.437-35.103-9.437-54.080 0-89.526 73.074-162.6 162.6-162.6s162.6 73.074 162.6 162.6c0 89.526-73.074 162.6-162.6 162.6-53.926 0-101.774-26.493-131.387-67.145l-288.542 166.955c15.728 25.016 25.043 54.406 25.043 86.018 0 31.722-9.214 61.311-25.043 86.382l288.542 166.955c29.599-40.783 77.358-67.508 131.387-67.508 89.526 0 162.6 73.074 162.6 162.6s-73.074 162.6-162.6 162.6z" />
<glyph unicode="&#xe90e;" glyph-name="stock" d="M512 960l-184.074-73.704 421.481-184.815 204.444 81.852-441.852 176.667zM266.444 861.852l-196.296-78.519 441.852-176.667 175.556 70-421.111 185.185zM37.926 744.815v-626.296l450.37-177.778v624.074l-450.37 180zM986.074 744.815l-213.333-85.185v-173.703c0.121-8.548-4.371-16.499-11.754-20.809s-16.516-4.309-23.899 0c-7.384 4.309-11.875 12.261-11.754 20.809v154.815l-189.63-75.926v-624.074l450.37 177.778v626.296z" />
<glyph unicode="&#xe90f;" glyph-name="thumbs-up" d="M997.038 394.481c23.083 26.44 34.629 57.706 34.629 93.806 0 32.737-11.978 61.065-35.853 85.001-23.923 23.934-52.25 35.895-84.988 35.895h-174.386c1.676 5.875 3.356 10.91 5.032 15.107 1.661 4.197 3.994 8.818 6.92 13.855 2.929 5.039 5.035 8.818 6.289 11.333 7.553 14.263 13.334 26.022 17.325 35.249 3.985 9.244 7.951 21.831 11.952 37.781 3.994 15.941 5.978 31.897 5.978 47.847 0 10.068-0.121 18.261-0.32 24.552-0.197 6.296-1.266 15.743-3.138 28.336-1.901 12.587-4.424 23.081-7.564 31.471-3.154 8.393-8.194 17.844-15.107 28.329-6.928 10.505-15.319 18.993-25.191 25.502-9.87 6.505-22.457 11.961-37.776 16.364-15.334 4.408-32.638 6.611-51.957 6.611-10.91 0-20.346-3.989-28.329-11.965-8.393-8.393-15.54-18.885-21.41-31.471-5.879-12.594-9.974-23.507-12.285-32.744-2.309-9.233-4.935-22.038-7.861-38.403-3.79-17.636-6.611-30.325-8.512-38.089-1.886-7.765-5.568-17.941-11.019-30.53-5.462-12.598-11.961-22.664-19.518-30.224-13.848-13.848-35.041-39.033-63.589-75.545-20.572-26.859-41.765-52.25-63.589-76.177-21.829-23.93-37.776-36.309-47.847-37.149-10.486-0.838-19.511-5.14-27.068-12.908-7.557-7.765-11.334-16.895-11.334-27.386v-403.561c0-10.913 3.985-20.247 11.961-28.012 7.971-7.773 17.416-11.864 28.329-12.285 14.688-0.421 47.847-9.645 99.475-27.71 32.314-10.896 57.598-19.197 75.856-24.856 18.254-5.658 43.77-11.749 76.483-18.263 32.744-6.503 62.958-9.764 90.653-9.764h81.217c55.836 0.838 97.16 17.213 124.032 49.104 24.335 28.965 34.614 66.95 30.85 113.959 16.366 15.528 27.708 35.247 33.995 59.177 7.125 25.589 7.125 50.144 0 73.645 19.304 25.603 28.329 54.355 27.061 86.254 0.053 13.445-3.087 29.39-9.397 47.864zM245.949 528.582h-181.314c-10.919 0-20.364-3.989-28.338-11.965-7.974-7.971-11.963-17.416-11.963-28.329v-402.947c0-10.898 3.989-20.346 11.965-28.329 7.98-7.962 17.425-11.954 28.338-11.954h181.312c10.91 0 20.351 3.991 28.329 11.954 7.974 7.983 11.961 17.43 11.961 28.329v402.947c0 10.913-3.989 20.355-11.961 28.329-7.976 7.978-17.416 11.965-28.329 11.965zM173.544 137.296c-7.974-7.765-17.416-11.645-28.329-11.645-11.334 0-20.884 3.881-28.645 11.645-7.765 7.765-11.645 17.311-11.645 28.645 0 10.91 3.879 20.358 11.645 28.329 7.762 7.976 17.311 11.969 28.645 11.969 10.913 0 20.355-3.994 28.329-11.969 7.976-7.969 11.965-17.416 11.965-28.329 0-11.334-3.98-20.879-11.965-28.645z" />
<glyph unicode="&#xe910;" glyph-name="trash" d="M462.495 958.352c-28.48 0-51.666-22.714-51.666-50.631v-2.030h-262.458c-27.245 0-49.254-21.639-49.254-48.43s22.009-48.43 49.254-48.43h714.012c27.243 0 49.252 21.641 49.252 48.43s-22.009 48.43-49.252 48.43h-262.46v2.030c0 28.004-23.184 50.631-51.664 50.631h-85.765zM188.671 767.85c-53.082 0-94.769-45.344-89.037-97.537l70.091-640.598c4.938-44.997 43.446-78.741 89.209-78.741h493.057c45.764 0 84.099 33.83 89.037 78.741l70.263 640.598c5.643 52.193-35.953 97.537-89.037 97.537h-633.583zM340.566 581.58c11.462 0 20.321-9.144 20.321-19.982v-404.374c0-11.184-8.946-19.982-20.321-19.982-11.022 0-20.494 8.797-20.494 19.982v404.374c0 10.838 9.472 19.982 20.494 19.982zM505.549 581.58c11.375 0 20.323-9.144 20.323-19.982v-404.374c0-11.184-8.948-19.982-20.323-19.982-11.373 0-20.491 8.797-20.491 19.982v404.374c0 10.838 9.119 19.982 20.491 19.982zM670.36 581.58c11.462 0 20.321-9.144 20.321-19.982v-404.374c0-11.184-8.946-19.982-20.321-19.982s-20.321 8.797-20.321 19.982v404.374c0 10.838 9.036 19.982 20.321 19.982z" />
<glyph unicode="&#xe911;" glyph-name="trend" d="M1024 755.2l-324.824-36.268 115.191-115.204-224.778-224.778-213.736 213.749-375.853-375.866 63.469-63.469 312.384 312.384 213.736-213.749 288.248 288.261 109.895-109.882z" />
<glyph unicode="&#xe913;" glyph-name="arrow-right" d="M874.086 810.109c-93.935 92.137-220.297 149.891-363.019 149.891-140.834 0-269.073-57.754-361.153-149.891-92.103-92.103-149.902-220.319-149.902-361.165 0-142.677 57.799-269.096 149.902-362.974 92.080-92.16 220.319-149.97 361.153-149.97 142.723 0 269.084 57.81 363.019 149.97 92.103 93.878 149.902 220.297 149.902 362.974 0 140.846-57.799 269.062-149.902 361.165zM662.801 443.506l-211.285-211.285c-1.832-1.798-5.45-1.798-9.068 0l-45.147 46.911 164.352 164.375c1.798 3.63 1.798 7.236 0 9.045l-164.352 164.318 45.147 46.967c3.618 1.798 7.236 1.798 9.068 0l211.285-211.285c1.786-1.798 1.786-5.416 0-9.045z" />
<glyph unicode="&#xe9e1;" glyph-name="smile" d="M512-64c282.77 0 512 229.23 512 512s-229.23 512-512 512-512-229.23-512-512 229.23-512 512-512zM512 864c229.75 0 416-186.25 416-416s-186.25-416-416-416-416 186.25-416 416 186.25 416 416 416zM256 640c0 35.346 28.654 64 64 64s64-28.654 64-64c0-35.346-28.654-64-64-64s-64 28.654-64 64zM640 640c0 35.346 28.654 64 64 64s64-28.654 64-64c0-35.346-28.654-64-64-64s-64 28.654-64 64zM704.098 332.74l82.328-49.396c-55.962-93.070-157.916-155.344-274.426-155.344s-218.464 62.274-274.426 155.344l82.328 49.396c39.174-65.148 110.542-108.74 192.098-108.74s152.924 43.592 192.098 108.74z" />
<glyph unicode="&#xe9e2;" glyph-name="smile2" d="M512 960c-282.77 0-512-229.23-512-512s229.23-512 512-512 512 229.23 512 512-229.23 512-512 512zM704 704c35.346 0 64-28.654 64-64s-28.654-64-64-64-64 28.654-64 64 28.654 64 64 64zM320 704c35.346 0 64-28.654 64-64s-28.654-64-64-64-64 28.654-64 64 28.654 64 64 64zM512 128c-116.51 0-218.464 62.274-274.426 155.344l82.328 49.396c39.174-65.148 110.542-108.74 192.098-108.74s152.924 43.592 192.098 108.74l82.328-49.396c-55.962-93.070-157.916-155.344-274.426-155.344z" />
<glyph unicode="&#xf004;" glyph-name="heart" d="M512 0q-14.857 0-25.143 10.286l-356.571 344q-5.714 4.571-15.714 14.857t-31.714 37.429-38.857 55.714-30.571 69.143-13.429 78.857q0 125.714 72.571 196.571t200.571 70.857q35.429 0 72.286-12.286t68.571-33.143 54.571-39.143 43.429-38.857q20.571 20.571 43.429 38.857t54.571 39.143 68.571 33.143 72.286 12.286q128 0 200.571-70.857t72.571-196.571q0-126.286-130.857-257.143l-356-342.857q-10.286-10.286-25.143-10.286z" />
<glyph unicode="&#xf005;" glyph-name="star" horiz-adv-x="951" d="M950.857 581.143q0-12.571-14.857-27.429l-207.429-202.286 49.143-285.714q0.571-4 0.571-11.429 0-12-6-20.286t-17.429-8.286q-10.857 0-22.857 6.857l-256.571 134.857-256.571-134.857q-12.571-6.857-22.857-6.857-12 0-18 8.286t-6 20.286q0 3.429 1.143 11.429l49.143 285.714-208 202.286q-14.286 15.429-14.286 27.429 0 21.143 32 26.286l286.857 41.714 128.571 260q10.857 23.429 28 23.429t28-23.429l128.571-260 286.857-41.714q32-5.143 32-26.286z" />
<glyph unicode="&#xf006;" glyph-name="star-o" horiz-adv-x="951" d="M649.714 377.143l174.857 169.714-241.143 35.429-108 218.286-108-218.286-241.143-35.429 174.857-169.714-41.714-240.571 216 113.714 215.429-113.714zM950.857 581.143q0-12.571-14.857-27.429l-207.429-202.286 49.143-285.714q0.571-4 0.571-11.429 0-28.571-23.429-28.571-10.857 0-22.857 6.857l-256.571 134.857-256.571-134.857q-12.571-6.857-22.857-6.857-12 0-18 8.286t-6 20.286q0 3.429 1.143 11.429l49.143 285.714-208 202.286q-14.286 15.429-14.286 27.429 0 21.143 32 26.286l286.857 41.714 128.571 260q10.857 23.429 28 23.429t28-23.429l128.571-260 286.857-41.714q32-5.143 32-26.286z" />
<glyph unicode="&#xf00d;" glyph-name="close, remove, times" horiz-adv-x="805" d="M741.714 195.428c0-14.286-5.714-28.571-16-38.857l-77.714-77.714c-10.286-10.286-24.571-16-38.857-16s-28.571 5.714-38.857 16l-168 168-168-168c-10.286-10.286-24.571-16-38.857-16s-28.571 5.714-38.857 16l-77.714 77.714c-10.286 10.286-16 24.571-16 38.857s5.714 28.571 16 38.857l168 168-168 168c-10.286 10.286-16 24.571-16 38.857s5.714 28.571 16 38.857l77.714 77.714c10.286 10.286 24.571 16 38.857 16s28.571-5.714 38.857-16l168-168 168 168c10.286 10.286 24.571 16 38.857 16s28.571-5.714 38.857-16l77.714-77.714c10.286-10.286 16-24.571 16-38.857s-5.714-28.571-16-38.857l-168-168 168-168c10.286-10.286 16-24.571 16-38.857z" />
<glyph unicode="&#xf069;" glyph-name="asterisk" horiz-adv-x="951" d="M846.857 350.857c34.857-20 46.857-65.143 26.857-100l-36.571-62.857c-20-34.857-65.143-46.857-100-26.857l-152 87.429v-175.429c0-40-33.143-73.143-73.143-73.143h-73.143c-40 0-73.143 33.143-73.143 73.143v175.429l-152-87.429c-34.857-20-80-8-100 26.857l-36.571 62.857c-20 34.857-8 80 26.857 100l152 88-152 88c-34.857 20-46.857 65.143-26.857 100l36.571 62.857c20 34.857 65.143 46.857 100 26.857l152-87.429v175.429c0 40 33.143 73.143 73.143 73.143h73.143c40 0 73.143-33.143 73.143-73.143v-175.429l152 87.429c34.857 20 80 8 100-26.857l36.571-62.857c20-34.857 8-80-26.857-100l-152-88z" />
<glyph unicode="&#xf087;" glyph-name="thumbs-o-up" horiz-adv-x="878" d="M146.286 182.857q0 14.857-10.857 25.714t-25.714 10.857-25.714-10.857-10.857-25.714 10.857-25.714 25.714-10.857 25.714 10.857 10.857 25.714zM804.571 512q0 29.143-22.286 51.143t-50.857 22h-201.143q0 33.143 27.429 91.143t27.429 91.714q0 56-18.286 82.857t-73.143 26.857q-14.857-14.857-21.714-48.571t-17.429-71.714-34-62.571q-12.571-13.143-44-52-2.286-2.857-13.143-17.143t-18-23.429-19.714-24.286-22.857-25.143-22-20.286-22.857-15.429-20.286-5.143h-18.286v-365.714h18.286q7.429 0 18-1.714t18.857-3.714 21.714-6.286 20-6.571 20.286-7.143 16.571-6q120.571-41.714 195.429-41.714h69.143q109.714 0 109.714 95.429 0 14.857-2.857 32 17.143 9.143 27.143 30t10 42-10.286 39.429q30.286 28.571 30.286 68 0 14.286-5.714 31.714t-14.286 27.143q18.286 0.571 30.571 26.857t12.286 46.286zM877.714 512.571q0-50.857-28-93.143 5.143-18.857 5.143-39.429 0-44-21.714-82.286 1.714-12 1.714-24.571 0-57.714-34.286-101.714 0.571-79.429-48.571-125.429t-129.714-46h-73.714q-54.857 0-108.286 12.857t-123.714 37.429q-66.286 22.857-78.857 22.857h-164.571q-30.286 0-51.714 21.429t-21.429 51.714v365.714q0 30.286 21.429 51.714t51.714 21.429h156.571q20.571 13.714 78.286 88.571 33.143 42.857 61.143 73.143 13.714 14.286 20.286 48.857t17.429 72.286 35.429 61.714q22.286 21.143 51.429 21.143 48 0 86.286-18.571t58.286-58 20-106.286q0-53.143-27.429-109.714h100.571q59.429 0 102.857-43.429t43.429-102.286z" />
<glyph unicode="&#xf08a;" glyph-name="heart-o" d="M950.857 610.286q0 46.286-12.286 81.714t-31.429 56.286-46.571 34-53.714 17.714-56 4.571-64-14.571-63.143-36.571-49.429-41.143-34.286-35.143q-10.286-12.571-28-12.571t-28 12.571q-13.714 16-34.286 35.143t-49.429 41.143-63.143 36.571-64 14.571-56-4.571-53.714-17.714-46.571-34-31.429-56.286-12.286-81.714q0-96 106.857-202.857l332-320 331.429 319.429q107.429 107.429 107.429 203.429zM1024 610.286q0-126.286-130.857-257.143l-356-342.857q-10.286-10.286-25.143-10.286t-25.143 10.286l-356.571 344q-5.714 4.571-15.714 14.857t-31.714 37.429-38.857 55.714-30.571 69.143-13.429 78.857q0 125.714 72.571 196.571t200.571 70.857q35.429 0 72.286-12.286t68.571-33.143 54.571-39.143 43.429-38.857q20.571 20.571 43.429 38.857t54.571 39.143 68.571 33.143 72.286 12.286q128 0 200.571-70.857t72.571-196.571z" />
<glyph unicode="&#xf0f3;" glyph-name="bell" d="M521.143-18.286c0 5.143-4 9.143-9.143 9.143-45.143 0-82.286 37.143-82.286 82.286 0 5.143-4 9.143-9.143 9.143s-9.143-4-9.143-9.143c0-55.429 45.143-100.571 100.571-100.571 5.143 0 9.143 4 9.143 9.143zM987.429 146.286c0-40-33.143-73.143-73.143-73.143h-256c0-80.571-65.714-146.286-146.286-146.286s-146.286 65.714-146.286 146.286h-256c-40 0-73.143 33.143-73.143 73.143 84.571 71.429 182.857 199.429 182.857 475.429 0 109.714 90.857 229.714 242.286 252-2.857 6.857-4.571 14.286-4.571 22.286 0 30.286 24.571 54.857 54.857 54.857s54.857-24.571 54.857-54.857c0-8-1.714-15.429-4.571-22.286 151.429-22.286 242.286-142.286 242.286-252 0-276 98.286-404 182.857-475.429z" />
<glyph unicode="&#xf123;" glyph-name="star-half-empty, star-half-full, star-half-o" horiz-adv-x="951" d="M677.714 404l146.857 142.857-241.143 35.429-17.143 34.286-90.857 184v-550.286l33.714-17.714 181.714-96-34.286 202.857-6.857 37.714zM936 553.714l-207.429-202.286 49.143-285.714c4-25.143-5.143-40-22.857-40-6.286 0-14.286 2.286-22.857 6.857l-256.571 134.857-256.571-134.857c-8.571-4.571-16.571-6.857-22.857-6.857-17.714 0-26.857 14.857-22.857 40l49.143 285.714-208 202.286c-24.571 24.571-16.571 48.571 17.714 53.714l286.857 41.714 128.571 260c7.429 15.429 17.714 23.429 28 23.429v0c10.286 0 20-8 28-23.429l128.571-260 286.857-41.714c34.286-5.143 42.286-29.143 17.143-53.714z" />
<glyph unicode="&#xf128;" glyph-name="question" d="M596.856 233.142v-137.143c0-12.571-10.286-22.857-22.857-22.857h-137.143c-12.571 0-22.857 10.286-22.857 22.857v137.143c0 12.571 10.286 22.857 22.857 22.857h137.143c12.571 0 22.857-10.286 22.857-22.857zM777.427 575.999c0-108.571-73.714-150.286-128-180.571-33.714-19.429-54.857-58.857-54.857-75.429v0c0-12.571-9.714-27.429-22.857-27.429h-137.143c-12.571 0-20.571 19.429-20.571 32v25.714c0 69.143 68.571 128.571 118.857 151.429 44 20 62.286 38.857 62.286 75.429 0 32-41.714 60.571-88 60.571-25.714 0-49.143-8-61.714-16.571-13.714-9.714-27.429-23.429-61.143-65.714-4.571-5.714-11.429-9.143-17.714-9.143-5.143 0-9.714 1.714-14.286 4.571l-93.714 71.429c-9.714 7.429-12 20-5.714 30.286 61.714 102.286 148.571 152 265.143 152 122.286 0 259.429-97.714 259.429-228.571z" />
<glyph unicode="&#xf1d9;" glyph-name="paper-plane-o, send-o" horiz-adv-x="1025" d="M1008 944.571c12-8.571 17.714-22.286 15.429-36.571l-146.286-877.714c-1.714-10.857-8.571-20-18.286-25.714-5.143-2.857-11.429-4.571-17.714-4.571-4.571 0-9.143 1.143-13.714 2.857l-301.143 122.857-170.286-186.857c-6.857-8-16.571-12-26.857-12-4.571 0-9.143 0.571-13.143 2.286-14.286 5.714-23.429 19.429-23.429 34.286v258.286l-269.714 110.286c-13.143 5.143-21.714 17.143-22.857 31.429-1.143 13.714 6.286 26.857 18.286 33.714l950.857 548.571c12 7.429 27.429 6.857 38.857-1.143zM812.571 88l126.286 756-819.429-472.571 192-78.286 493.143 365.143-273.143-455.429z" />
</font>
</defs>
</svg>
